<svg width="690px" height="246px" viewBox="0 0 690 246" xmlns="http://www.w3.org/2000/svg" xmlns:xlink="http://www.w3.org/1999/xlink" version="1.1">
 <path id="Path" d="M-190 -124 L890 -124 890 376 -190 376 Z" fill="transparent" fill-opacity="1" stroke="none"/>
 <g id="group">
  <g id="group-1">
   <g id="group-2">
    <path id="Path-1" d="M286.62 88.13 L286.62 138.26 315.65 138.26 C317.32 138.26 318.75 138.85 319.92 140.04 321.09 141.22 321.68 142.66 321.68 144.35 L321.68 150.22 279.89 150.22 C278.15 150.22 276.71 149.63 275.57 148.46 274.43 147.29 273.86 145.87 273.86 144.19 L273.86 82.11 280.59 82.11 C282.33 82.11 283.77 82.68 284.91 83.81 286.05 84.95 286.62 86.39 286.62 88.13 Z" fill="#307bb9" fill-opacity="1" stroke="none"/>
    <path id="Path-2" d="M379.84 126.21 C379.84 129.69 379.27 132.96 378.13 136 376.99 139.05 375.33 141.71 373.16 143.99 370.98 146.27 368.35 148.06 365.27 149.36 362.19 150.67 358.7 151.32 354.82 151.32 350.94 151.32 347.45 150.67 344.37 149.36 341.29 148.05 338.68 146.26 336.54 143.99 334.4 141.71 332.75 139.05 331.62 136 330.48 132.95 329.91 129.69 329.91 126.21 329.91 122.79 330.48 119.56 331.62 116.52 332.76 113.47 334.42 110.83 336.59 108.58 338.77 106.34 341.38 104.55 344.43 103.2 347.48 101.86 350.91 101.19 354.72 101.19 358.54 101.19 361.99 101.86 365.07 103.2 368.15 104.54 370.79 106.33 373 108.58 375.21 110.82 376.9 113.47 378.07 116.52 379.25 119.57 379.84 122.79 379.84 126.21 Z M341.76 126.21 C341.76 128.02 342.03 129.78 342.57 131.48 343.1 133.19 343.92 134.69 345.03 136 346.13 137.31 347.51 138.36 349.15 139.16 350.79 139.96 352.68 140.36 354.83 140.36 356.97 140.36 358.86 139.96 360.51 139.16 362.15 138.36 363.52 137.3 364.63 136 365.73 134.69 366.55 133.19 367.09 131.48 367.63 129.77 367.89 128.01 367.89 126.21 367.89 124.41 367.59 122.66 366.99 120.99 366.39 119.32 365.52 117.81 364.38 116.47 363.24 115.13 361.87 114.06 360.26 113.25 358.65 112.45 356.84 112.05 354.84 112.05 352.7 112.05 350.82 112.45 349.21 113.25 347.6 114.05 346.25 115.13 345.14 116.47 344.04 117.81 343.2 119.32 342.63 120.99 342.05 122.66 341.76 124.4 341.76 126.21 Z" fill="#307bb9" fill-opacity="1" stroke="none"/>
    <path id="Path-3" d="M436.69 158.66 C436.42 162.68 435.38 166.3 433.58 169.51 432.78 170.85 431.79 172.17 430.62 173.48 429.45 174.79 427.99 175.94 426.25 176.95 424.51 177.95 422.48 178.76 420.17 179.36 417.86 179.96 415.16 180.26 412.08 180.26 409 180.26 406.29 179.96 403.94 179.36 401.59 178.76 399.55 177.95 397.81 176.95 396.07 175.94 394.61 174.79 393.44 173.48 392.27 172.17 391.28 170.85 390.48 169.51 388.67 166.3 387.63 162.68 387.37 158.66 L394.3 158.66 C395.37 158.73 396.24 158.93 396.91 159.26 397.58 159.59 398.15 160 398.62 160.47 399.09 161 399.49 161.61 399.82 162.28 400.56 164.02 401.63 165.34 403.04 166.25 404.45 167.15 405.82 167.81 407.16 168.21 408.77 168.68 410.44 168.95 412.18 169.02 415.39 168.95 417.85 168.37 419.56 167.26 421.27 166.15 422.52 164.97 423.33 163.69 424.2 162.22 424.7 160.54 424.84 158.67 L424.84 143.6 C422.96 146.48 420.65 148.49 417.91 149.63 415.16 150.77 412.32 151.34 409.37 151.34 405.82 151.34 402.54 150.77 399.53 149.63 396.52 148.49 393.9 146.85 391.7 144.71 389.49 142.57 387.76 139.94 386.53 136.83 385.29 133.72 384.67 130.18 384.67 126.23 384.67 122.08 385.29 118.44 386.53 115.33 387.77 112.22 389.46 109.61 391.6 107.5 393.74 105.39 396.3 103.8 399.28 102.73 402.26 101.66 405.52 101.12 409.07 101.12 410.34 101.12 411.75 101.29 413.29 101.62 414.83 101.96 416.34 102.44 417.81 103.08 419.28 103.72 420.64 104.52 421.88 105.49 423.12 106.46 424.1 107.55 424.84 108.75 L424.84 106.74 C424.84 105.07 425.43 103.64 426.6 102.47 427.77 101.3 429.2 100.71 430.87 100.71 L436.7 100.71 436.7 158.66 Z M410.47 140.48 C412.48 140.48 414.35 140.11 416.1 139.37 417.84 138.63 419.36 137.63 420.67 136.36 421.98 135.09 423 133.58 423.73 131.84 424.47 130.1 424.84 128.26 424.84 126.31 424.84 124.37 424.47 122.55 423.73 120.84 422.99 119.13 421.97 117.62 420.67 116.32 419.36 115.02 417.84 114 416.1 113.26 414.36 112.52 412.48 112.15 410.47 112.15 408.53 112.15 406.68 112.52 404.94 113.26 403.2 114 401.68 115.02 400.37 116.32 399.07 117.63 398.04 119.13 397.31 120.84 396.57 122.55 396.2 124.37 396.2 126.31 396.2 128.25 396.57 130.1 397.31 131.84 398.05 133.58 399.07 135.09 400.37 136.36 401.68 137.63 403.2 138.64 404.94 139.37 406.69 140.11 408.53 140.48 410.47 140.48 Z" fill="#307bb9" fill-opacity="1" stroke="none"/>
    <path id="Path-4" d="M462.81 94.27 L462.81 103.51 476.07 103.51 476.07 108.63 C476.07 110.04 475.58 111.23 474.61 112.2 473.64 113.17 472.45 113.66 471.04 113.66 L462.7 113.66 462.7 133.25 C462.7 135.6 463.28 137.32 464.46 138.42 465.63 139.53 467.12 140.08 468.93 140.08 L469.83 140.08 C470.1 140.08 470.4 140.05 470.73 139.98 471.93 139.78 473.06 140 474.1 140.63 475.14 141.27 475.86 142.19 476.26 143.39 L478.07 148.71 C476.33 149.45 474.7 149.97 473.2 150.27 471.69 150.57 470.04 150.75 468.23 150.82 463.01 151.02 458.82 149.65 455.67 146.7 452.52 143.75 450.95 139.26 450.95 133.24 L450.95 113.65 442.01 113.65 442.01 108.53 C442.01 107.12 442.49 105.94 443.47 104.96 444.44 103.99 445.63 103.5 447.04 103.5 L450.96 103.5 450.96 89.23 457.29 89.23 C458.83 89.1 460.13 89.52 461.21 90.49 462.27 91.47 462.81 92.73 462.81 94.27 Z" fill="#307bb9" fill-opacity="1" stroke="none"/>
    <path id="Path-5" d="M501.68 88.74 C501.68 91.09 500.96 92.83 499.52 93.96 498.08 95.1 496.47 95.67 494.7 95.67 492.92 95.67 491.32 95.1 489.88 93.96 488.44 92.82 487.72 91.08 487.72 88.74 487.72 86.4 488.44 84.64 489.88 83.47 491.32 82.3 492.93 81.71 494.7 81.71 496.48 81.71 498.08 82.3 499.52 83.47 500.96 84.64 501.68 86.4 501.68 88.74 Z M488.82 102 L488.82 144.19 C488.82 145.86 489.41 147.29 490.58 148.46 491.75 149.63 493.17 150.22 494.85 150.22 L500.68 150.22 500.68 108.03 C500.68 106.36 500.09 104.93 498.92 103.76 497.75 102.59 496.32 102 494.65 102 Z" fill="#307bb9" fill-opacity="1" stroke="none"/>
    <path id="Path-6" d="M562.65 102.1 L542.96 148.51 C542.42 149.78 541.49 150.42 540.15 150.42 L531.31 150.42 C529.97 150.42 529.07 149.82 528.6 148.61 L508.81 102.1 518.45 102.1 C519.45 102.1 520.37 102.38 521.21 102.95 522.05 103.52 522.67 104.27 523.07 105.21 L528.39 117.97 535.72 138.26 543.05 118.17 548.37 105.21 C548.77 104.27 549.39 103.52 550.23 102.95 551.07 102.38 551.99 102.1 552.99 102.1 Z" fill="#307bb9" fill-opacity="1" stroke="none"/>
    <path id="Path-7" d="M584.95 88.74 C584.95 91.09 584.23 92.83 582.79 93.96 581.35 95.1 579.74 95.67 577.97 95.67 576.19 95.67 574.59 95.1 573.15 93.96 571.71 92.82 570.99 91.08 570.99 88.74 570.99 86.4 571.71 84.64 573.15 83.47 574.59 82.3 576.2 81.71 577.97 81.71 579.75 81.71 581.35 82.3 582.79 83.47 584.23 84.64 584.95 86.4 584.95 88.74 Z M572.1 102 L572.1 144.19 C572.1 145.86 572.69 147.29 573.86 148.46 575.03 149.63 576.45 150.22 578.13 150.22 L583.96 150.22 583.96 108.03 C583.96 106.36 583.37 104.93 582.2 103.76 581.03 102.59 579.6 102 577.93 102 Z" fill="#307bb9" fill-opacity="1" stroke="none"/>
    <path id="Path-8" d="M612.88 94.27 L612.88 103.51 626.14 103.51 626.14 108.63 C626.14 110.04 625.65 111.23 624.68 112.2 623.71 113.17 622.52 113.66 621.11 113.66 L612.77 113.66 612.77 133.25 C612.77 135.6 613.35 137.32 614.53 138.42 615.7 139.53 617.19 140.08 619 140.08 L619.9 140.08 C619.9 140.08 620.47 140.05 620.8 139.98 622 139.78 623.13 140 624.17 140.63 625.21 141.27 625.93 142.19 626.33 143.39 L628.14 148.71 C626.4 149.45 624.77 149.97 623.27 150.27 621.76 150.57 620.11 150.75 618.3 150.82 613.08 151.02 608.89 149.65 605.74 146.7 602.59 143.75 601.02 139.26 601.02 133.24 L601.02 113.65 592.08 113.65 592.08 108.53 C592.08 107.12 592.56 105.94 593.54 104.96 594.51 103.99 595.7 103.5 597.11 103.5 L601.03 103.5 601.03 89.23 607.36 89.23 C608.9 89.1 610.2 89.52 611.28 90.49 612.34 91.47 612.88 92.73 612.88 94.27 Z" fill="#307bb9" fill-opacity="1" stroke="none"/>
    <path id="Path-9" d="M685.6 102.2 L657.88 166.59 C657.41 167.73 656.68 168.61 655.67 169.25 654.67 169.89 653.56 170.21 652.36 170.21 L643.32 170.21 652.26 149.42 633.07 102.21 642.61 102.21 C643.95 102.21 645.12 102.58 646.13 103.32 647.14 104.06 647.87 105.03 648.34 106.23 L659.19 136.47 670.94 105.93 C671.41 104.79 672.14 103.89 673.15 103.22 674.15 102.55 675.26 102.22 676.46 102.22 L685.6 102.22 Z" fill="#307bb9" fill-opacity="1" stroke="none"/>
   </g>
   <g id="group-3">
    <g id="group-4">
     <g id="group-5">
      <path id="Path-10" d="M126.61 243.88 C60.09 243.88 5.98 189.76 5.98 123.25 5.98 56.74 60.1 2.62 126.61 2.62 193.12 2.62 247.24 56.74 247.24 123.25 247.24 189.76 193.13 243.88 126.61 243.88 Z M126.61 16.32 C67.65 16.32 19.68 64.29 19.68 123.25 19.68 182.21 67.65 230.18 126.61 230.18 185.57 230.18 233.54 182.21 233.54 123.25 233.54 64.29 185.57 16.32 126.61 16.32 Z" fill="#307bb9" fill-opacity="1" stroke="none"/>
     </g>
    </g>
    <g id="group-6">
     <g id="group-7">
      <g id="group-8">
       <path id="Path-11" d="M110.1 141.04 L99.38 141.04 C98.25 141.04 97.33 140.12 97.33 138.99 L97.33 120.85 C97.33 119.72 98.25 118.8 99.38 118.8 L110.1 118.8 C111.23 118.8 112.15 119.72 112.15 120.85 L112.15 138.99 C112.15 140.12 111.23 141.04 110.1 141.04 Z" fill="#307bb9" fill-opacity="1" stroke="none"/>
      </g>
     </g>
     <g id="group-9">
      <g id="group-10">
       <path id="Path-12" d="M154.59 141.04 L143.85 141.04 C142.72 141.04 141.8 140.12 141.8 138.99 L141.8 106.01 C141.8 104.88 142.72 103.96 143.85 103.96 L154.59 103.96 C155.72 103.96 156.64 104.88 156.64 106.01 L156.64 139 C156.64 140.13 155.72 141.04 154.59 141.04 Z" fill="#307bb9" fill-opacity="1" stroke="none"/>
      </g>
     </g>
     <g id="group-11">
      <g id="group-12">
       <path id="Path-13" d="M133.62 141.04 L120.33 141.04 C119.08 141.04 118.08 140.03 118.08 138.79 L118.08 89.91 C118.08 88.66 119.09 87.66 120.33 87.66 L133.62 87.66 C134.87 87.66 135.87 88.67 135.87 89.91 L135.87 138.79 C135.88 140.03 134.87 141.04 133.62 141.04 Z" fill="#307bb9" fill-opacity="1" stroke="none"/>
      </g>
     </g>
     <g id="group-13">
      <g id="group-14">
       <path id="Path-14" d="M178.02 141.04 L164.91 141.04 C163.62 141.04 162.57 139.99 162.57 138.7 L162.57 84.07 C162.57 82.78 163.62 81.73 164.91 81.73 L178.02 81.73 C179.31 81.73 180.36 82.78 180.36 84.07 L180.36 138.7 C180.36 139.99 179.32 141.04 178.02 141.04 Z" fill="#307bb9" fill-opacity="1" stroke="none"/>
      </g>
     </g>
     <g id="group-15">
      <path id="Path-15" d="M82.49 150.71 L82.49 80.95 C82.49 79.74 81.51 78.76 80.3 78.76 L69.86 78.76 C68.65 78.76 67.67 79.74 67.67 80.95 L67.67 165.54 C67.67 166.75 68.65 167.73 69.86 167.73 L74.34 167.73 82.5 167.73 183.37 167.73 C184.58 167.73 185.56 166.75 185.56 165.54 L185.56 155.1 C185.56 153.89 184.58 152.91 183.37 152.91 L84.7 152.91 C83.47 152.91 82.49 151.92 82.49 150.71 Z" fill="#307bb9" fill-opacity="1" stroke="none"/>
     </g>
    </g>
   </g>
  </g>
 </g>
</svg>
